PathFileType	4	(X/Y/Z)	D:\TRACE\v60_Jaco2_6-2-23\BothDRS_Motion3_5-v60.trc
DataRate	CameraRate	NumFrames	NumMarkers	Units	OrigDataRate	OrigDataStartFrame	OrigNumFrames
100.00	100.00	      35	9	mm	100.00	5251	      7000
Frame#	Time	front left toe			Front right toe			aft left toe			aft right toe			Arm			FL body			FR body			AL Body			AR Body			
		X1	Y1	Z1	X2	Y2	Z2	X3	Y3	Z3	X4	Y4	Z4	X5	Y5	Z5	X6	Y6	Z6	X7	Y7	Z7	X8	Y8	Z8	X9	Y9	Z9	

5251	52.500	-194.54182	40.72615	-140.49449	183.67526	10.29608	-134.57202	-203.12660	21.05864	479.29877	170.35458	51.51620	484.29572	21.37077	1068.16077	-638.70160	-77.42620	497.50171	-316.51569	80.55352	495.45847	-313.39569	-86.39828	571.41968	625.25378	63.86723	559.28821	627.81616	
5252	52.510	-194.65511	33.00957	-141.36562	183.67728	10.26002	-134.57347	-203.47630	21.32500	479.45697	170.25934	43.46304	483.26932	22.36682	1068.47388	-638.54510	-77.07574	497.65384	-316.71698	80.94795	495.23221	-313.64200	-86.84427	571.17725	624.86151	63.32514	558.94110	627.39862	
5253	52.520	-194.60788	25.71676	-142.52486	183.77637	10.34599	-134.54704	-203.48210	21.15956	479.45132	170.47180	36.00335	481.88885	22.96896	1068.89441	-638.50244	-76.63000	497.57965	-317.04648	81.44933	495.28946	-313.90344	-87.16943	570.93817	624.52209	63.47509	558.78162	627.11841	
5254	52.530	-194.59830	19.15255	-144.52417	183.72321	10.25138	-134.52208	-203.48318	21.03639	479.40356	169.85645	29.67246	480.21548	23.99421	1069.14661	-638.40338	-76.68312	497.99750	-317.76059	82.22440	495.28195	-314.60486	-87.64722	570.78558	624.15912	63.31377	558.43225	626.45782	
5255	52.540	-194.64560	13.98685	-146.57187	183.82089	10.21332	-134.53128	-203.45067	20.92055	479.36475	169.30305	23.36595	478.38318	24.86215	1069.43298	-638.58270	-76.48747	498.23309	-318.41528	82.29958	495.36115	-315.08780	-88.17432	570.81445	623.33771	63.26864	558.38574	626.29871	
5256	52.550	-195.84927	14.91255	-148.31709	183.70531	10.16996	-134.57750	-203.44489	20.80589	479.21304	169.71768	21.96111	476.38739	25.50552	1069.55896	-638.93854	-76.15733	498.29385	-318.78729	81.67641	495.51331	-315.25552	-88.62146	570.90063	622.86975	62.43897	558.26288	625.37042	
5257	52.560	-196.60988	13.84444	-148.21838	183.69350	10.18748	-134.58563	-203.43051	21.04377	479.01328	170.20256	20.06236	478.08374	26.08360	1069.58606	-639.40259	-75.74749	498.42389	-319.10614	82.29718	495.64188	-315.37463	-88.82813	571.79132	622.45459	61.27930	558.94989	625.28046	
5258	52.570	-196.03288	12.51904	-147.77422	183.74438	10.76618	-134.48788	-203.30127	21.49652	478.99585	170.41147	20.70568	476.61829	26.88011	1069.77820	-640.37897	-75.25304	498.70358	-319.00638	82.94799	495.97049	-315.30164	-89.58241	573.73584	622.15198	60.33141	561.23639	625.05328	
5259	52.580	-195.79440	13.85561	-146.71063	183.92580	12.08217	-134.59242	-203.12270	22.11923	479.00195	170.06783	20.45896	477.73203	27.73676	1069.83936	-641.48645	-74.72413	498.82327	-319.02585	83.18645	496.38861	-315.32144	-90.36081	575.85278	621.70990	59.36804	563.65405	624.98029	
5260	52.590	-195.79575	13.52803	-146.89771	182.90166	14.69068	-133.32355	-201.27493	24.90576	479.59732	169.62570	20.18962	478.92679	28.68760	1069.59021	-642.85327	-74.50619	499.47876	-319.73117	84.44789	496.50015	-315.44574	-91.09177	577.41382	621.41345	58.32012	565.51611	624.96417	
5261	52.600	-195.75092	11.99549	-147.32030	179.80603	17.31322	-130.83868	-198.87918	29.47391	481.19452	169.90158	20.25998	477.52197	29.56860	1068.72144	-644.19153	-73.72821	500.11337	-320.37033	85.22693	497.35822	-315.80927	-91.80507	578.07690	621.02319	57.96006	566.24371	624.90210	
5262	52.610	-195.81792	12.23595	-147.17892	177.06158	24.62512	-129.97203	-195.28326	36.44053	481.20770	169.72726	20.13170	478.41779	30.16357	1068.00757	-645.00043	-73.39972	500.45914	-320.74594	84.65472	498.03638	-316.06924	-92.67951	578.41241	620.24396	57.32456	566.90845	624.31396	
5263	52.620	-196.02666	12.57007	-147.61850	176.44231	32.79560	-130.04424	-193.31726	45.92525	480.15936	169.74261	20.25744	477.79532	30.31133	1068.00366	-645.83282	-73.11041	500.55438	-321.30734	85.55028	498.00864	-316.74451	-93.32679	578.65808	619.67694	56.74783	567.05542	623.61652	
5264	52.630	-195.97775	11.98554	-147.50252	176.89674	43.74982	-131.89534	-192.87425	56.35708	477.80426	169.60049	20.12224	477.90463	30.39828	1068.41675	-646.53101	-72.95431	500.44183	-322.18402	85.85310	497.82544	-317.54691	-93.42019	578.97479	618.91962	57.34481	567.39655	623.35809	
5265	52.640	-196.08151	11.68240	-147.36903	179.01117	55.22546	-134.36690	-194.10521	67.10690	475.28134	169.72346	20.03958	477.89905	31.12688	1068.38025	-647.22662	-72.80212	500.06915	-322.68805	85.98517	497.51740	-317.97293	-93.11223	578.65527	618.07501	57.39235	566.93579	622.32172	
5266	52.650	-196.18958	11.42389	-147.31679	180.79721	66.49102	-136.54410	-195.86258	78.03830	472.82239	169.87494	19.97513	478.00827	30.86280	1068.32019	-648.02216	-72.72435	499.64011	-323.27585	85.26412	497.41241	-318.65302	-92.57037	577.98126	617.65369	58.16643	566.73499	622.09772	
5267	52.660	-196.36639	11.23810	-147.46523	182.47195	77.78566	-138.71222	-198.31400	89.84701	470.57166	170.08893	19.87844	477.87051	30.72715	1067.99805	-648.84656	-73.19252	499.68832	-324.14569	84.98801	497.42361	-319.52524	-92.20238	577.31354	617.13232	58.49158	565.89441	621.35126	
5268	52.670	-196.53098	11.11167	-147.50992	184.19701	89.15740	-140.56277	-199.57144	100.89669	468.42764	170.18260	19.84379	477.75711	30.22918	1067.46436	-649.86786	-73.03156	499.50769	-324.61053	85.60498	497.01285	-320.29776	-91.80084	576.55371	616.32690	59.69817	564.90887	620.43677	
5269	52.680	-196.60539	11.15087	-147.51730	185.36700	99.96294	-142.73965	-199.68959	111.58515	466.21512	170.21584	19.86111	477.79184	29.20953	1066.95044	-651.14197	-72.87413	499.43771	-325.28836	85.57821	496.85962	-321.24457	-91.05061	576.00031	615.68365	59.41399	564.54230	619.97101	
5270	52.690	-196.60847	11.04797	-147.66306	185.73279	109.93163	-145.18700	-199.55190	121.84470	464.21036	170.24754	19.77574	477.67099	29.00647	1066.28455	-652.44562	-73.05680	499.60748	-326.26114	85.69584	496.79141	-321.99631	-90.60988	575.56012	615.20703	60.56739	564.05188	619.21143	
5271	52.700	-196.64505	10.88219	-147.76308	187.16658	119.37046	-146.79025	-198.46010	131.00691	462.45956	170.16930	19.78745	477.51474	28.09356	1065.64343	-653.72742	-73.04339	499.46671	-326.58533	85.04375	496.65906	-322.36993	-89.96886	575.01263	614.35498	61.47059	563.58704	618.62891	
5272	52.710	-196.75514	10.73580	-147.79465	188.47574	128.00311	-148.82814	-196.95795	139.12918	461.20108	170.20010	19.90777	477.50027	27.74296	1065.01819	-655.06116	-73.24829	499.16998	-327.48672	84.91277	496.37674	-323.44736	-89.18166	575.06061	613.97076	61.73260	563.29565	617.83936	
5273	52.720	-196.78999	10.64453	-147.82242	189.46873	134.87659	-150.94969	-195.73338	146.52414	459.30432	170.25366	19.82357	477.38150	27.70817	1064.33997	-656.20825	-73.35841	498.99347	-328.15781	85.51855	495.87091	-323.96930	-88.19572	574.69482	613.24182	62.68512	562.91748	617.18298	
5274	52.730	-196.75218	10.58454	-147.84056	191.39529	140.46149	-153.02534	-194.40787	151.84538	457.16092	170.26210	19.74527	477.16458	27.45874	1063.67700	-657.96515	-73.31924	498.79443	-328.57483	85.57737	495.58569	-324.51743	-87.43779	574.65900	612.86639	63.40680	562.95776	616.49353	
5275	52.740	-196.73402	10.58194	-147.84665	192.82285	142.94922	-154.79291	-193.77802	154.42609	456.37457	170.31310	19.78199	477.04672	27.53394	1063.00037	-659.62408	-73.29802	498.67673	-329.01324	85.69933	495.50623	-325.57324	-86.19780	574.97430	612.26434	64.98932	562.83197	615.69720	
5276	52.750	-196.67688	10.53626	-147.85429	194.35593	142.66029	-155.75592	-192.82814	154.70796	455.81622	170.31380	19.73204	476.90195	27.06450	1062.05994	-661.26923	-73.34228	498.44482	-329.58914	84.92332	495.55057	-326.03149	-84.97865	575.16296	611.83087	65.67627	563.34094	615.17743	
5277	52.760	-196.70316	10.51833	-147.86478	195.58969	139.18465	-156.75793	-191.42027	152.60216	455.78363	170.28485	19.72440	476.77283	26.68143	1061.20691	-662.95477	-73.40471	498.38885	-330.09106	85.00047	495.21204	-326.54095	-83.82445	575.44830	611.38763	67.59708	563.54730	614.39539	
5278	52.770	-196.63867	10.48063	-147.86882	196.60016	135.07370	-157.55304	-189.38330	149.55515	456.36792	170.31525	19.91647	476.66525	26.18489	1060.19922	-664.79456	-73.03361	498.12186	-330.61646	85.66006	494.99515	-327.56516	-82.46002	575.97070	610.81104	67.98401	564.00024	613.73004	
5279	52.780	-196.58315	10.43634	-147.85934	197.10545	129.73242	-158.42584	-186.95985	145.67522	456.64114	170.41187	19.97953	476.57635	25.06903	1059.29468	-666.81665	-72.75989	497.92181	-330.97186	86.01389	494.77255	-328.41519	-81.25066	576.51563	610.31427	69.98970	564.21320	612.77460	
5280	52.790	-196.61116	10.48452	-147.88765	199.06583	123.54861	-158.76604	-184.34233	141.02119	456.72147	170.48889	20.10819	476.46878	24.38309	1058.33081	-668.48236	-72.39147	497.59082	-331.45007	86.02319	494.54355	-328.68698	-79.71656	577.29437	609.65198	70.72665	565.12097	612.22375	
5281	52.800	-196.57520	10.48056	-147.91779	200.61992	117.77506	-159.87849	-182.23413	135.44879	456.57394	170.62971	20.30327	476.28793	23.64687	1057.46960	-670.44745	-72.17042	497.43094	-332.24496	87.02786	493.86575	-329.38327	-78.60168	577.85864	608.97699	71.71572	565.53424	611.18335	
5282	52.810	-196.57597	10.45137	-147.92767	202.44057	110.76221	-161.43954	-180.38615	129.07103	456.21158	170.73520	20.43059	476.12720	23.48248	1056.05469	-672.38043	-71.91901	497.08215	-332.93295	87.32320	493.48972	-330.25525	-77.05008	578.34882	608.26740	73.48061	566.12775	610.61169	
5283	52.820	-196.56680	10.38028	-147.93227	204.92212	104.07253	-162.87952	-177.87611	122.03351	455.32922	170.95468	20.61275	476.00955	23.15055	1054.78027	-674.22864	-71.09211	496.26852	-333.06680	86.63565	493.15982	-331.01425	-75.40990	578.61383	607.62689	75.30056	566.31635	609.78119	
5284	52.830	-196.42871	10.27071	-147.89806	207.48647	97.05108	-164.11496	-174.40672	114.58461	454.35803	171.19952	20.72530	475.97968	22.81807	1053.46301	-676.18964	-70.72808	495.84189	-333.30765	87.34650	492.45337	-331.56198	-74.19140	578.92407	607.06543	77.96461	566.60907	609.14594	
5285	52.840	-196.31845	10.21461	-147.92874	209.65231	89.06232	-165.67188	-171.39853	106.96165	453.81647	171.34741	20.76467	475.84903	23.04198	1052.12744	-677.71545	-70.28591	495.50031	-334.28271	87.77641	492.03723	-332.58118	-72.10686	579.35272	606.49969	79.12570	566.86786	608.33380	
